<svg xmlns="http://www.w3.org/2000/svg" viewBox="0 0 360 240">
  <rect x="8" y="8" width="344" height="224" rx="26" fill="#e8f4ff" stroke="#111" stroke-width="7"/>
  <rect x="26" y="24" width="308" height="150" rx="20" fill="white" stroke="#111" stroke-width="4"/>
  
  <path d="M72 58 H142 L132 155 H82 Z" fill="white" stroke="#111" stroke-width="5"/>
  <path d="M85 115 C100 108 118 126 132 116 L132 155 H82 Z" fill="#74c0fc" stroke="#111" stroke-width="3"/>
  <circle cx="105" cy="142" r="8" fill="#ffd166" stroke="#111" stroke-width="3"/>
  <path d="M158 105 H200" stroke="#111" stroke-width="7"/>
  <polygon points="200,105 182,93 182,117" fill="#111"/>
  <path d="M218 58 H288 L278 155 H228 Z" fill="white" stroke="#111" stroke-width="5"/>
  <path d="M230 115 C246 108 263 126 278 116 L278 155 H228 Z" fill="#74c0fc" stroke="#111" stroke-width="3"/>
  <circle cx="242" cy="125" r="4" fill="#ffd166"/>
  <circle cx="260" cy="140" r="4" fill="#ffd166"/>
  <circle cx="270" cy="120" r="4" fill="#ffd166"/>

  <rect x="38" y="185" width="284" height="32" rx="16" fill="#fff7d6" stroke="#111" stroke-width="3"/>
  <text x="180" y="207" text-anchor="middle" font-family="Arial, sans-serif" font-size="19" font-weight="900" fill="#111">before/after solution</text>
</svg>
